<?xml version="1.0" standalone="no"?> 
<svg version="1.0" xmlns="http://www.w3.org/2000/svg"
 width="300.000000pt" height="128.000000pt" viewBox="0 0 300.000000 128.000000"
 preserveAspectRatio="xMidYMid meet">
 
<g transform="translate(0.000000,128.000000) scale(0.100000,-0.100000)"
fill="#000000" stroke="none">
<path d="M1383 1268 c-6 -7 -21 -40 -33 -73 -22 -58 -25 -61 -83 -84 l-59 -23
-65 27 c-76 33 -93 28 -151 -43 l-35 -42 30 -68 c22 -50 35 -68 51 -70 27 -4
27 -4 -4 69 -23 57 -24 62 -9 85 29 45 54 49 125 19 l63 -26 56 24 c31 13 63
27 72 30 9 3 26 31 39 64 32 81 36 84 87 81 44 -3 45 -3 71 -67 29 -69 27 -67
118 -106 l61 -26 58 25 c31 14 63 26 69 26 7 0 26 -15 43 -32 l32 -33 -29 -67
-29 -68 23 0 c19 0 28 11 50 61 14 33 26 68 26 78 0 19 -89 111 -107 111 -7 0
-39 -12 -72 -26 l-60 -26 -60 23 c-60 23 -61 25 -87 89 -14 36 -31 68 -37 72
-20 13 -144 9 -154 -4z"/>
<path d="M1407 1039 c-73 -8 -170 -56 -222 -108 l-39 -41 28 0 c17 0 42 12 64
31 54 48 117 71 207 76 94 6 166 -16 240 -73 27 -20 56 -34 73 -34 26 1 26 2
-23 47 -88 81 -200 116 -328 102z"/>
<path d="M2717 803 c-3 -5 -23 -73 -46 -153 -22 -80 -45 -160 -50 -177 -7 -25
-7 -33 3 -33 11 0 61 155 114 353 4 17 -12 24 -21 10z"/>
<path d="M570 770 c0 -27 3 -30 30 -30 27 0 30 3 30 30 0 27 -3 30 -30 30 -27
0 -30 -3 -30 -30z"/>
<path d="M940 640 l0 -160 30 0 c28 0 30 2 30 39 0 21 6 44 14 50 12 10 19 3
42 -39 25 -47 30 -50 66 -50 l39 0 -26 43 c-14 23 -34 57 -43 75 -16 32 -16
32 21 70 20 21 37 41 37 45 0 4 -15 7 -34 7 -28 0 -41 -8 -75 -47 l-40 -48 -1
88 0 87 -30 0 -30 0 0 -160z"/>
<path d="M1190 640 l0 -160 30 0 30 0 0 160 0 160 -30 0 -30 0 0 -160z"/>
<path d="M290 600 l0 -120 30 0 30 0 0 74 c0 89 19 123 63 112 27 -6 27 -7 27
-96 l0 -90 36 0 36 0 -4 101 c-3 92 -5 103 -27 120 -29 23 -88 25 -113 2 -17
-15 -18 -15 -18 0 0 12 -9 17 -30 17 l-30 0 0 -120z"/>
<path d="M570 600 l0 -120 30 0 30 0 0 120 0 120 -30 0 -30 0 0 -120z"/>
<path d="M724 705 c-33 -22 -47 -68 -42 -132 4 -46 10 -61 32 -80 54 -46 162
-18 179 47 4 17 0 20 -27 20 -20 0 -35 -7 -44 -20 -27 -44 -82 -7 -82 55 0 62
55 99 82 55 8 -13 24 -20 44 -20 28 0 31 3 26 25 -7 39 -47 65 -101 65 -26 0
-56 -7 -67 -15z"/>
<path d="M1336 699 c-36 -29 -35 -59 3 -59 16 0 31 6 35 15 7 19 50 20 65 2
14 -17 -4 -37 -35 -37 -35 0 -84 -21 -94 -40 -16 -30 -12 -68 10 -90 24 -24
77 -26 108 -4 12 8 22 10 22 5 0 -6 15 -11 33 -11 l32 0 -5 101 c-5 91 -7 103
-29 120 -33 27 -110 26 -145 -2z m114 -129 c0 -23 -33 -60 -54 -60 -19 0 -39
27 -33 44 4 9 21 19 39 25 47 13 48 13 48 -9z"/>
<path d="M1570 600 l0 -120 30 0 30 0 0 74 c0 79 13 106 51 106 14 0 19 7 19
30 0 23 -5 30 -19 30 -10 0 -24 -7 -32 -16 -11 -14 -13 -14 -21 0 -5 9 -20 16
-33 16 l-25 0 0 -120z"/>
<path d="M1764 686 c-31 -31 -34 -40 -34 -91 0 -51 3 -60 34 -91 29 -29 41
-34 83 -34 76 0 123 47 123 125 0 78 -47 125 -123 125 -42 0 -54 -5 -83 -34z
m120 -32 c25 -24 24 -88 -1 -116 -35 -40 -93 -4 -93 57 0 60 57 96 94 59z"/>
<path d="M2035 695 c-34 -33 -33 -79 0 -101 13 -9 46 -21 72 -28 59 -15 65
-40 10 -44 -26 -2 -39 1 -43 12 -4 10 -19 16 -40 16 -38 0 -38 0 -23 -34 16
-34 59 -50 121 -44 56 6 88 32 88 72 0 38 -27 62 -90 80 -63 18 -73 29 -40 46
21 11 60 -2 60 -20 0 -6 14 -10 30 -10 23 0 30 5 30 19 0 58 -127 84 -175 36z"/>
<path d="M2285 695 c-34 -33 -32 -55 4 -55 16 0 31 6 35 15 6 17 43 20 65 6
20 -13 -3 -41 -34 -41 -36 0 -85 -21 -95 -40 -16 -30 -12 -68 10 -90 24 -24
77 -26 108 -4 12 8 22 10 22 5 0 -6 15 -11 33 -11 l32 0 -3 100 c-3 93 -5 101
-29 120 -38 30 -116 28 -148 -5z m115 -125 c0 -23 -33 -60 -54 -60 -19 0 -39
27 -33 44 4 9 21 19 39 25 47 13 48 13 48 -9z"/>
<path d="M103 652 c-56 -26 -103 -53 -103 -60 0 -11 199 -112 221 -112 5 0 9
5 9 11 0 5 -44 30 -97 55 l-97 45 94 42 c51 23 95 48 98 55 6 20 -17 13 -125
-36z"/>
<path d="M2770 688 c0 -7 41 -30 90 -52 50 -21 90 -41 90 -45 0 -3 -41 -25
-90 -48 -50 -23 -90 -46 -90 -52 0 -6 4 -11 9 -11 18 0 221 102 221 111 0 6
-42 30 -93 53 -118 55 -137 61 -137 44z"/>
<path d="M990 324 c-17 -36 -30 -68 -30 -71 0 -13 70 -89 93 -102 23 -12 32
-11 90 14 l65 27 59 -23 c58 -23 61 -26 83 -84 12 -33 27 -66 33 -72 10 -14
134 -18 154 -5 6 4 23 36 37 72 26 64 27 66 87 89 l60 23 60 -26 c33 -14 66
-26 73 -26 18 0 106 93 106 112 0 9 -12 44 -26 77 -19 44 -32 61 -45 61 -24 0
-23 -13 6 -80 l24 -55 -32 -32 c-17 -18 -36 -33 -43 -33 -6 0 -38 12 -69 26
l-58 25 -61 -26 c-91 -39 -89 -37 -118 -106 -26 -64 -27 -64 -71 -67 -51 -3
-55 0 -87 81 -13 33 -30 61 -39 64 -9 3 -41 17 -72 30 l-56 24 -63 -26 c-71
-30 -96 -26 -125 19 -15 23 -14 28 9 85 31 73 31 71 6 71 -16 0 -28 -16 -50
-66z"/>
<path d="M1160 381 c0 -5 19 -25 41 -46 143 -129 379 -129 527 0 23 20 42 41
42 46 0 19 -43 8 -78 -21 -129 -102 -315 -106 -446 -8 -48 36 -86 49 -86 29z"/>
</g>
</svg>
